<svg xmlns="http://www.w3.org/2000/svg" xmlns:xlink="http://www.w3.org/1999/xlink" contentStyleType="text/css" height="186px" preserveAspectRatio="none" style="width:187px;height:186px;background:#FFFFFF;" version="1.1" viewBox="0 0 187 186" width="187px" zoomAndPan="magnify"><defs/><g><!--MD5=[f1ee7a876834964f16097b5e53f21668]
class AnimalTerrestre--><g id="elem_AnimalTerrestre"><rect fill="#F1F1F1" height="64.2969" id="AnimalTerrestre" rx="2.5" ry="2.5" style="stroke:#181818;stroke-width:0.5;" width="149" x="18" y="7"/><ellipse cx="33" cy="23" fill="#ADD1B2" rx="11" ry="11" style="stroke:#181818;stroke-width:1.0;"/><path d="M35.3438,18.6719 C34.4063,18.2344 33.8125,18.0938 32.9375,18.0938 C30.3125,18.0938 28.3125,20.1719 28.3125,22.8906 L28.3125,24.0156 C28.3125,26.5938 30.4219,28.4844 33.3125,28.4844 C34.5313,28.4844 35.6875,28.1875 36.4375,27.6406 C37.0156,27.2344 37.3438,26.7813 37.3438,26.3906 C37.3438,25.9375 36.9531,25.5469 36.4844,25.5469 C36.2656,25.5469 36.0625,25.625 35.875,25.8125 C35.4219,26.2969 35.4219,26.2969 35.2344,26.3906 C34.8125,26.6563 34.125,26.7813 33.3594,26.7813 C31.3125,26.7813 30.0156,25.6875 30.0156,23.9844 L30.0156,22.8906 C30.0156,21.1094 31.2656,19.7969 33,19.7969 C33.5781,19.7969 34.1875,19.9531 34.6563,20.2031 C35.1406,20.4844 35.3125,20.7031 35.4063,21.1094 C35.4688,21.5156 35.5,21.6406 35.6406,21.7656 C35.7813,21.9063 36.0156,22.0156 36.2344,22.0156 C36.5,22.0156 36.7656,21.875 36.9375,21.6563 C37.0469,21.5 37.0781,21.3125 37.0781,20.8906 L37.0781,19.4688 C37.0781,19.0313 37.0625,18.9063 36.9688,18.75 C36.8125,18.4844 36.5313,18.3438 36.2344,18.3438 C35.9375,18.3438 35.7344,18.4375 35.5156,18.75 L35.3438,18.6719 Z " fill="#000000"/><text fill="#000000" font-family="sans-serif" font-size="14" lengthAdjust="spacing" textLength="117" x="47" y="27.8467">AnimalTerrestre</text><line style="stroke:#181818;stroke-width:0.5;" x1="19" x2="166" y1="39" y2="39"/><line style="stroke:#181818;stroke-width:0.5;" x1="19" x2="166" y1="47" y2="47"/><text fill="#000000" font-family="sans-serif" font-size="14" lengthAdjust="spacing" textLength="67" x="24" y="63.9951">caminar()</text></g><!--MD5=[911fe1357c24e8165700ac79875f9a94]
class Gato--><g id="elem_Gato"><rect fill="#F1F1F1" height="48" id="Gato" rx="2.5" ry="2.5" style="stroke:#181818;stroke-width:0.5;" width="67" x="7" y="131"/><ellipse cx="22" cy="147" fill="#ADD1B2" rx="11" ry="11" style="stroke:#181818;stroke-width:1.0;"/><path d="M24.3438,142.6719 C23.4063,142.2344 22.8125,142.0938 21.9375,142.0938 C19.3125,142.0938 17.3125,144.1719 17.3125,146.8906 L17.3125,148.0156 C17.3125,150.5938 19.4219,152.4844 22.3125,152.4844 C23.5313,152.4844 24.6875,152.1875 25.4375,151.6406 C26.0156,151.2344 26.3438,150.7813 26.3438,150.3906 C26.3438,149.9375 25.9531,149.5469 25.4844,149.5469 C25.2656,149.5469 25.0625,149.625 24.875,149.8125 C24.4219,150.2969 24.4219,150.2969 24.2344,150.3906 C23.8125,150.6563 23.125,150.7813 22.3594,150.7813 C20.3125,150.7813 19.0156,149.6875 19.0156,147.9844 L19.0156,146.8906 C19.0156,145.1094 20.2656,143.7969 22,143.7969 C22.5781,143.7969 23.1875,143.9531 23.6563,144.2031 C24.1406,144.4844 24.3125,144.7031 24.4063,145.1094 C24.4688,145.5156 24.5,145.6406 24.6406,145.7656 C24.7813,145.9063 25.0156,146.0156 25.2344,146.0156 C25.5,146.0156 25.7656,145.875 25.9375,145.6563 C26.0469,145.5 26.0781,145.3125 26.0781,144.8906 L26.0781,143.4688 C26.0781,143.0313 26.0625,142.9063 25.9688,142.75 C25.8125,142.4844 25.5313,142.3438 25.2344,142.3438 C24.9375,142.3438 24.7344,142.4375 24.5156,142.75 L24.3438,142.6719 Z " fill="#000000"/><text fill="#000000" font-family="sans-serif" font-size="14" lengthAdjust="spacing" textLength="35" x="36" y="151.8467">Gato</text><line style="stroke:#181818;stroke-width:0.5;" x1="8" x2="73" y1="163" y2="163"/><line style="stroke:#181818;stroke-width:0.5;" x1="8" x2="73" y1="171" y2="171"/></g><!--MD5=[838fb693084ebcda77f8479951cb9fdf]
class Perro--><g id="elem_Perro"><rect fill="#F1F1F1" height="48" id="Perro" rx="2.5" ry="2.5" style="stroke:#181818;stroke-width:0.5;" width="71" x="109" y="131"/><ellipse cx="124" cy="147" fill="#ADD1B2" rx="11" ry="11" style="stroke:#181818;stroke-width:1.0;"/><path d="M126.3438,142.6719 C125.4063,142.2344 124.8125,142.0938 123.9375,142.0938 C121.3125,142.0938 119.3125,144.1719 119.3125,146.8906 L119.3125,148.0156 C119.3125,150.5938 121.4219,152.4844 124.3125,152.4844 C125.5313,152.4844 126.6875,152.1875 127.4375,151.6406 C128.0156,151.2344 128.3438,150.7813 128.3438,150.3906 C128.3438,149.9375 127.9531,149.5469 127.4844,149.5469 C127.2656,149.5469 127.0625,149.625 126.875,149.8125 C126.4219,150.2969 126.4219,150.2969 126.2344,150.3906 C125.8125,150.6563 125.125,150.7813 124.3594,150.7813 C122.3125,150.7813 121.0156,149.6875 121.0156,147.9844 L121.0156,146.8906 C121.0156,145.1094 122.2656,143.7969 124,143.7969 C124.5781,143.7969 125.1875,143.9531 125.6563,144.2031 C126.1406,144.4844 126.3125,144.7031 126.4063,145.1094 C126.4688,145.5156 126.5,145.6406 126.6406,145.7656 C126.7813,145.9063 127.0156,146.0156 127.2344,146.0156 C127.5,146.0156 127.7656,145.875 127.9375,145.6563 C128.0469,145.5 128.0781,145.3125 128.0781,144.8906 L128.0781,143.4688 C128.0781,143.0313 128.0625,142.9063 127.9688,142.75 C127.8125,142.4844 127.5313,142.3438 127.2344,142.3438 C126.9375,142.3438 126.7344,142.4375 126.5156,142.75 L126.3438,142.6719 Z " fill="#000000"/><text fill="#000000" font-family="sans-serif" font-size="14" lengthAdjust="spacing" textLength="39" x="138" y="151.8467">Perro</text><line style="stroke:#181818;stroke-width:0.5;" x1="110" x2="179" y1="163" y2="163"/><line style="stroke:#181818;stroke-width:0.5;" x1="110" x2="179" y1="171" y2="171"/></g><!--MD5=[82fe76b909222c2daf50c62607410c17]
reverse link AnimalTerrestre to Gato--><g id="link_AnimalTerrestre_Gato"><path codeLine="1" d="M69.9664,89.4007 C63.392,103.8138 56.5165,118.8869 51.0621,130.8446 " fill="none" id="AnimalTerrestre-backto-Gato" style="stroke:#181818;stroke-width:1.0;"/><polygon fill="none" points="63.6219,86.4423,78.2908,71.151,76.3593,92.2524,63.6219,86.4423" style="stroke:#181818;stroke-width:1.0;"/></g><!--MD5=[8730a4bc0bb4699bb9f0fc41efc6c2e0]
reverse link AnimalTerrestre to Perro--><g id="link_AnimalTerrestre_Perro"><path codeLine="2" d="M115.034,89.4007 C121.608,103.8138 128.483,118.8869 133.938,130.8446 " fill="none" id="AnimalTerrestre-backto-Perro" style="stroke:#181818;stroke-width:1.0;"/><polygon fill="none" points="108.641,92.2524,106.7092,71.151,121.378,86.4423,108.641,92.2524" style="stroke:#181818;stroke-width:1.0;"/></g><!--MD5=[288992cf8ee0c6cad174cecb07101f9c]
@startuml
AnimalTerrestre <|- - Gato
AnimalTerrestre <|- - Perro

AnimalTerrestre : caminar()
@enduml

PlantUML version 1.2022.7beta2(Unknown compile time)
(GPL source distribution)
Java Runtime: Java(TM) SE Runtime Environment
JVM: Java HotSpot(TM) 64-Bit Server VM
Default Encoding: UTF-8
Language: en
Country: US
--></g></svg>