<svg xmlns="http://www.w3.org/2000/svg" xmlns:xlink="http://www.w3.org/1999/xlink" contentStyleType="text/css" height="170px" preserveAspectRatio="none" style="width:322px;height:170px;background:#FFFFFF;" version="1.1" viewBox="0 0 322 170" width="322px" zoomAndPan="magnify"><defs/><g><!--MD5=[d4810177e0cd78618d5cf804f1eed890]
class MiSuperClase1--><g id="elem_MiSuperClase1"><rect fill="#F1F1F1" height="48" id="MiSuperClase1" rx="2.5" ry="2.5" style="stroke:#181818;stroke-width:0.5;" width="137" x="7" y="7"/><ellipse cx="22" cy="23" fill="#ADD1B2" rx="11" ry="11" style="stroke:#181818;stroke-width:1.0;"/><path d="M24.3438,18.6719 C23.4063,18.2344 22.8125,18.0938 21.9375,18.0938 C19.3125,18.0938 17.3125,20.1719 17.3125,22.8906 L17.3125,24.0156 C17.3125,26.5938 19.4219,28.4844 22.3125,28.4844 C23.5313,28.4844 24.6875,28.1875 25.4375,27.6406 C26.0156,27.2344 26.3438,26.7813 26.3438,26.3906 C26.3438,25.9375 25.9531,25.5469 25.4844,25.5469 C25.2656,25.5469 25.0625,25.625 24.875,25.8125 C24.4219,26.2969 24.4219,26.2969 24.2344,26.3906 C23.8125,26.6563 23.125,26.7813 22.3594,26.7813 C20.3125,26.7813 19.0156,25.6875 19.0156,23.9844 L19.0156,22.8906 C19.0156,21.1094 20.2656,19.7969 22,19.7969 C22.5781,19.7969 23.1875,19.9531 23.6563,20.2031 C24.1406,20.4844 24.3125,20.7031 24.4063,21.1094 C24.4688,21.5156 24.5,21.6406 24.6406,21.7656 C24.7813,21.9063 25.0156,22.0156 25.2344,22.0156 C25.5,22.0156 25.7656,21.875 25.9375,21.6563 C26.0469,21.5 26.0781,21.3125 26.0781,20.8906 L26.0781,19.4688 C26.0781,19.0313 26.0625,18.9063 25.9688,18.75 C25.8125,18.4844 25.5313,18.3438 25.2344,18.3438 C24.9375,18.3438 24.7344,18.4375 24.5156,18.75 L24.3438,18.6719 Z " fill="#000000"/><text fill="#000000" font-family="sans-serif" font-size="14" lengthAdjust="spacing" textLength="105" x="36" y="27.8467">MiSuperClase1</text><line style="stroke:#181818;stroke-width:0.5;" x1="8" x2="143" y1="39" y2="39"/><line style="stroke:#181818;stroke-width:0.5;" x1="8" x2="143" y1="47" y2="47"/></g><!--MD5=[ae7082bb1f0a94382099e0a7c594e576]
class MiClase--><g id="elem_MiClase"><rect fill="#F1F1F1" height="48" id="MiClase" rx="2.5" ry="2.5" style="stroke:#181818;stroke-width:0.5;" width="86" x="118.5" y="115"/><ellipse cx="133.5" cy="131" fill="#ADD1B2" rx="11" ry="11" style="stroke:#181818;stroke-width:1.0;"/><path d="M135.8438,126.6719 C134.9063,126.2344 134.3125,126.0938 133.4375,126.0938 C130.8125,126.0938 128.8125,128.1719 128.8125,130.8906 L128.8125,132.0156 C128.8125,134.5938 130.9219,136.4844 133.8125,136.4844 C135.0313,136.4844 136.1875,136.1875 136.9375,135.6406 C137.5156,135.2344 137.8438,134.7813 137.8438,134.3906 C137.8438,133.9375 137.4531,133.5469 136.9844,133.5469 C136.7656,133.5469 136.5625,133.625 136.375,133.8125 C135.9219,134.2969 135.9219,134.2969 135.7344,134.3906 C135.3125,134.6563 134.625,134.7813 133.8594,134.7813 C131.8125,134.7813 130.5156,133.6875 130.5156,131.9844 L130.5156,130.8906 C130.5156,129.1094 131.7656,127.7969 133.5,127.7969 C134.0781,127.7969 134.6875,127.9531 135.1563,128.2031 C135.6406,128.4844 135.8125,128.7031 135.9063,129.1094 C135.9688,129.5156 136,129.6406 136.1406,129.7656 C136.2813,129.9063 136.5156,130.0156 136.7344,130.0156 C137,130.0156 137.2656,129.875 137.4375,129.6563 C137.5469,129.5 137.5781,129.3125 137.5781,128.8906 L137.5781,127.4688 C137.5781,127.0313 137.5625,126.9063 137.4688,126.75 C137.3125,126.4844 137.0313,126.3438 136.7344,126.3438 C136.4375,126.3438 136.2344,126.4375 136.0156,126.75 L135.8438,126.6719 Z " fill="#000000"/><text fill="#000000" font-family="sans-serif" font-size="14" lengthAdjust="spacing" textLength="54" x="147.5" y="135.8467">MiClase</text><line style="stroke:#181818;stroke-width:0.5;" x1="119.5" x2="203.5" y1="147" y2="147"/><line style="stroke:#181818;stroke-width:0.5;" x1="119.5" x2="203.5" y1="155" y2="155"/></g><!--MD5=[f572b088d68f2e565ab338f074a0f1d5]
class MiSuperClase2--><g id="elem_MiSuperClase2"><rect fill="#F1F1F1" height="48" id="MiSuperClase2" rx="2.5" ry="2.5" style="stroke:#181818;stroke-width:0.5;" width="136" x="179.5" y="7"/><ellipse cx="194.5" cy="23" fill="#ADD1B2" rx="11" ry="11" style="stroke:#181818;stroke-width:1.0;"/><path d="M196.8438,18.6719 C195.9063,18.2344 195.3125,18.0938 194.4375,18.0938 C191.8125,18.0938 189.8125,20.1719 189.8125,22.8906 L189.8125,24.0156 C189.8125,26.5938 191.9219,28.4844 194.8125,28.4844 C196.0313,28.4844 197.1875,28.1875 197.9375,27.6406 C198.5156,27.2344 198.8438,26.7813 198.8438,26.3906 C198.8438,25.9375 198.4531,25.5469 197.9844,25.5469 C197.7656,25.5469 197.5625,25.625 197.375,25.8125 C196.9219,26.2969 196.9219,26.2969 196.7344,26.3906 C196.3125,26.6563 195.625,26.7813 194.8594,26.7813 C192.8125,26.7813 191.5156,25.6875 191.5156,23.9844 L191.5156,22.8906 C191.5156,21.1094 192.7656,19.7969 194.5,19.7969 C195.0781,19.7969 195.6875,19.9531 196.1563,20.2031 C196.6406,20.4844 196.8125,20.7031 196.9063,21.1094 C196.9688,21.5156 197,21.6406 197.1406,21.7656 C197.2813,21.9063 197.5156,22.0156 197.7344,22.0156 C198,22.0156 198.2656,21.875 198.4375,21.6563 C198.5469,21.5 198.5781,21.3125 198.5781,20.8906 L198.5781,19.4688 C198.5781,19.0313 198.5625,18.9063 198.4688,18.75 C198.3125,18.4844 198.0313,18.3438 197.7344,18.3438 C197.4375,18.3438 197.2344,18.4375 197.0156,18.75 L196.8438,18.6719 Z " fill="#000000"/><text fill="#000000" font-family="sans-serif" font-size="14" lengthAdjust="spacing" textLength="104" x="208.5" y="27.8467">MiSuperClase2</text><line style="stroke:#181818;stroke-width:0.5;" x1="180.5" x2="314.5" y1="39" y2="39"/><line style="stroke:#181818;stroke-width:0.5;" x1="180.5" x2="314.5" y1="47" y2="47"/></g><!--MD5=[0654f17fc7c81091c41c18896daade65]
reverse link MiSuperClase1 to MiClase--><g id="link_MiSuperClase1_MiClase"><path codeLine="1" d="M106.8998,70.7021 C118.864,85.4485 132.123,101.7909 142.579,114.6784 " fill="none" id="MiSuperClase1-backto-MiClase" style="stroke:#181818;stroke-width:1.0;"/><polygon fill="none" points="101.3256,74.942,94.1607,55,112.198,66.1214,101.3256,74.942" style="stroke:#181818;stroke-width:1.0;"/></g><!--MD5=[2041990ce8b5b900da124a09536a1333]
reverse link MiSuperClase2 to MiClase--><g id="link_MiSuperClase2_MiClase"><path codeLine="2" d="M216.1,70.7021 C204.136,85.4485 190.877,101.7909 180.421,114.6784 " fill="none" id="MiSuperClase2-backto-MiClase" style="stroke:#181818;stroke-width:1.0;"/><polygon fill="none" points="210.802,66.1214,228.839,55,221.674,74.942,210.802,66.1214" style="stroke:#181818;stroke-width:1.0;"/></g><!--MD5=[1abc2e5e2d071e577c917d4e08672f35]
@startuml
MiSuperClase1 <|- - MiClase
MiSuperClase2 <|- - MiClase
@enduml

PlantUML version 1.2022.7beta2(Unknown compile time)
(GPL source distribution)
Java Runtime: Java(TM) SE Runtime Environment
JVM: Java HotSpot(TM) 64-Bit Server VM
Default Encoding: UTF-8
Language: en
Country: US
--></g></svg>