<svg xmlns="http://www.w3.org/2000/svg" xmlns:xlink="http://www.w3.org/1999/xlink" contentStyleType="text/css" height="202px" preserveAspectRatio="none" style="width:202px;height:202px;background:#FFFFFF;" version="1.1" viewBox="0 0 202 202" width="202px" zoomAndPan="magnify"><defs/><g><!--MD5=[90f66edba3ee2ef2943b92b287a7e5d6]
class Bird--><g id="elem_Bird"><rect fill="#F1F1F1" height="64.2969" id="Bird" rx="2.5" ry="2.5" style="stroke:#181818;stroke-width:0.5;" width="61" x="7" y="7"/><ellipse cx="22" cy="23" fill="#ADD1B2" rx="11" ry="11" style="stroke:#181818;stroke-width:1.0;"/><path d="M24.3438,18.6719 C23.4063,18.2344 22.8125,18.0938 21.9375,18.0938 C19.3125,18.0938 17.3125,20.1719 17.3125,22.8906 L17.3125,24.0156 C17.3125,26.5938 19.4219,28.4844 22.3125,28.4844 C23.5313,28.4844 24.6875,28.1875 25.4375,27.6406 C26.0156,27.2344 26.3438,26.7813 26.3438,26.3906 C26.3438,25.9375 25.9531,25.5469 25.4844,25.5469 C25.2656,25.5469 25.0625,25.625 24.875,25.8125 C24.4219,26.2969 24.4219,26.2969 24.2344,26.3906 C23.8125,26.6563 23.125,26.7813 22.3594,26.7813 C20.3125,26.7813 19.0156,25.6875 19.0156,23.9844 L19.0156,22.8906 C19.0156,21.1094 20.2656,19.7969 22,19.7969 C22.5781,19.7969 23.1875,19.9531 23.6563,20.2031 C24.1406,20.4844 24.3125,20.7031 24.4063,21.1094 C24.4688,21.5156 24.5,21.6406 24.6406,21.7656 C24.7813,21.9063 25.0156,22.0156 25.2344,22.0156 C25.5,22.0156 25.7656,21.875 25.9375,21.6563 C26.0469,21.5 26.0781,21.3125 26.0781,20.8906 L26.0781,19.4688 C26.0781,19.0313 26.0625,18.9063 25.9688,18.75 C25.8125,18.4844 25.5313,18.3438 25.2344,18.3438 C24.9375,18.3438 24.7344,18.4375 24.5156,18.75 L24.3438,18.6719 Z " fill="#000000"/><text fill="#000000" font-family="sans-serif" font-size="14" lengthAdjust="spacing" textLength="29" x="36" y="27.8467">Bird</text><line style="stroke:#181818;stroke-width:0.5;" x1="8" x2="67" y1="39" y2="39"/><line style="stroke:#181818;stroke-width:0.5;" x1="8" x2="67" y1="47" y2="47"/><text fill="#000000" font-family="sans-serif" font-size="14" lengthAdjust="spacing" textLength="28" x="13" y="63.9951">fly()</text></g><!--MD5=[c93bce01e5525b79bdbb6e4ef958107e]
class Airplane--><g id="elem_Airplane"><rect fill="#F1F1F1" height="64.2969" id="Airplane" rx="2.5" ry="2.5" style="stroke:#181818;stroke-width:0.5;" width="92" x="103.5" y="7"/><ellipse cx="118.5" cy="23" fill="#ADD1B2" rx="11" ry="11" style="stroke:#181818;stroke-width:1.0;"/><path d="M120.8438,18.6719 C119.9063,18.2344 119.3125,18.0938 118.4375,18.0938 C115.8125,18.0938 113.8125,20.1719 113.8125,22.8906 L113.8125,24.0156 C113.8125,26.5938 115.9219,28.4844 118.8125,28.4844 C120.0313,28.4844 121.1875,28.1875 121.9375,27.6406 C122.5156,27.2344 122.8438,26.7813 122.8438,26.3906 C122.8438,25.9375 122.4531,25.5469 121.9844,25.5469 C121.7656,25.5469 121.5625,25.625 121.375,25.8125 C120.9219,26.2969 120.9219,26.2969 120.7344,26.3906 C120.3125,26.6563 119.625,26.7813 118.8594,26.7813 C116.8125,26.7813 115.5156,25.6875 115.5156,23.9844 L115.5156,22.8906 C115.5156,21.1094 116.7656,19.7969 118.5,19.7969 C119.0781,19.7969 119.6875,19.9531 120.1563,20.2031 C120.6406,20.4844 120.8125,20.7031 120.9063,21.1094 C120.9688,21.5156 121,21.6406 121.1406,21.7656 C121.2813,21.9063 121.5156,22.0156 121.7344,22.0156 C122,22.0156 122.2656,21.875 122.4375,21.6563 C122.5469,21.5 122.5781,21.3125 122.5781,20.8906 L122.5781,19.4688 C122.5781,19.0313 122.5625,18.9063 122.4688,18.75 C122.3125,18.4844 122.0313,18.3438 121.7344,18.3438 C121.4375,18.3438 121.2344,18.4375 121.0156,18.75 L120.8438,18.6719 Z " fill="#000000"/><text fill="#000000" font-family="sans-serif" font-size="14" lengthAdjust="spacing" textLength="60" x="132.5" y="27.8467">Airplane</text><line style="stroke:#181818;stroke-width:0.5;" x1="104.5" x2="194.5" y1="39" y2="39"/><line style="stroke:#181818;stroke-width:0.5;" x1="104.5" x2="194.5" y1="47" y2="47"/><text fill="#000000" font-family="sans-serif" font-size="14" lengthAdjust="spacing" textLength="28" x="109.5" y="63.9951">fly()</text></g><!--MD5=[0ba60c1c7eece7977c024cb94d0d3fa3]
class Fish--><g id="elem_Fish"><rect fill="#F1F1F1" height="64.2969" id="Fish" rx="2.5" ry="2.5" style="stroke:#181818;stroke-width:0.5;" width="60" x="7.5" y="131"/><ellipse cx="22.5" cy="147" fill="#ADD1B2" rx="11" ry="11" style="stroke:#181818;stroke-width:1.0;"/><path d="M24.8438,142.6719 C23.9063,142.2344 23.3125,142.0938 22.4375,142.0938 C19.8125,142.0938 17.8125,144.1719 17.8125,146.8906 L17.8125,148.0156 C17.8125,150.5938 19.9219,152.4844 22.8125,152.4844 C24.0313,152.4844 25.1875,152.1875 25.9375,151.6406 C26.5156,151.2344 26.8438,150.7813 26.8438,150.3906 C26.8438,149.9375 26.4531,149.5469 25.9844,149.5469 C25.7656,149.5469 25.5625,149.625 25.375,149.8125 C24.9219,150.2969 24.9219,150.2969 24.7344,150.3906 C24.3125,150.6563 23.625,150.7813 22.8594,150.7813 C20.8125,150.7813 19.5156,149.6875 19.5156,147.9844 L19.5156,146.8906 C19.5156,145.1094 20.7656,143.7969 22.5,143.7969 C23.0781,143.7969 23.6875,143.9531 24.1563,144.2031 C24.6406,144.4844 24.8125,144.7031 24.9063,145.1094 C24.9688,145.5156 25,145.6406 25.1406,145.7656 C25.2813,145.9063 25.5156,146.0156 25.7344,146.0156 C26,146.0156 26.2656,145.875 26.4375,145.6563 C26.5469,145.5 26.5781,145.3125 26.5781,144.8906 L26.5781,143.4688 C26.5781,143.0313 26.5625,142.9063 26.4688,142.75 C26.3125,142.4844 26.0313,142.3438 25.7344,142.3438 C25.4375,142.3438 25.2344,142.4375 25.0156,142.75 L24.8438,142.6719 Z " fill="#000000"/><text fill="#000000" font-family="sans-serif" font-size="14" lengthAdjust="spacing" textLength="28" x="36.5" y="151.8467">Fish</text><line style="stroke:#181818;stroke-width:0.5;" x1="8.5" x2="66.5" y1="163" y2="163"/><line style="stroke:#181818;stroke-width:0.5;" x1="8.5" x2="66.5" y1="171" y2="171"/><text fill="#000000" font-family="sans-serif" font-size="14" lengthAdjust="spacing" textLength="46" x="13.5" y="187.9951">swim()</text></g><!--MD5=[761036587c7967366c367a2563f1ed62]
@startuml
Bird : fly()
Airplane : fly()
Fish : swim()
@enduml

PlantUML version 1.2022.7beta2(Unknown compile time)
(GPL source distribution)
Java Runtime: Java(TM) SE Runtime Environment
JVM: Java HotSpot(TM) 64-Bit Server VM
Default Encoding: UTF-8
Language: en
Country: US
--></g></svg>