<svg xmlns="http://www.w3.org/2000/svg" xmlns:xlink="http://www.w3.org/1999/xlink" contentStyleType="text/css" height="278px" preserveAspectRatio="none" style="width:133px;height:278px;background:#FFFFFF;" version="1.1" viewBox="0 0 133 278" width="133px" zoomAndPan="magnify"><defs/><g><!--MD5=[a46ee5ce0ceb0380cf446a08a056dce4]
class A--><g id="elem_A"><rect fill="#F1F1F1" height="48" id="A" rx="2.5" ry="2.5" style="stroke:#181818;stroke-width:0.5;" width="42" x="45" y="7"/><ellipse cx="60" cy="23" fill="#ADD1B2" rx="11" ry="11" style="stroke:#181818;stroke-width:1.0;"/><path d="M62.3438,18.6719 C61.4063,18.2344 60.8125,18.0938 59.9375,18.0938 C57.3125,18.0938 55.3125,20.1719 55.3125,22.8906 L55.3125,24.0156 C55.3125,26.5938 57.4219,28.4844 60.3125,28.4844 C61.5313,28.4844 62.6875,28.1875 63.4375,27.6406 C64.0156,27.2344 64.3438,26.7813 64.3438,26.3906 C64.3438,25.9375 63.9531,25.5469 63.4844,25.5469 C63.2656,25.5469 63.0625,25.625 62.875,25.8125 C62.4219,26.2969 62.4219,26.2969 62.2344,26.3906 C61.8125,26.6563 61.125,26.7813 60.3594,26.7813 C58.3125,26.7813 57.0156,25.6875 57.0156,23.9844 L57.0156,22.8906 C57.0156,21.1094 58.2656,19.7969 60,19.7969 C60.5781,19.7969 61.1875,19.9531 61.6563,20.2031 C62.1406,20.4844 62.3125,20.7031 62.4063,21.1094 C62.4688,21.5156 62.5,21.6406 62.6406,21.7656 C62.7813,21.9063 63.0156,22.0156 63.2344,22.0156 C63.5,22.0156 63.7656,21.875 63.9375,21.6563 C64.0469,21.5 64.0781,21.3125 64.0781,20.8906 L64.0781,19.4688 C64.0781,19.0313 64.0625,18.9063 63.9688,18.75 C63.8125,18.4844 63.5313,18.3438 63.2344,18.3438 C62.9375,18.3438 62.7344,18.4375 62.5156,18.75 L62.3438,18.6719 Z " fill="#000000"/><text fill="#000000" font-family="sans-serif" font-size="14" lengthAdjust="spacing" textLength="10" x="74" y="27.8467">A</text><line style="stroke:#181818;stroke-width:0.5;" x1="46" x2="86" y1="39" y2="39"/><line style="stroke:#181818;stroke-width:0.5;" x1="46" x2="86" y1="47" y2="47"/></g><!--MD5=[69c451c751c414e37549b782190fef46]
class B--><g id="elem_B"><rect fill="#F1F1F1" height="48" id="B" rx="2.5" ry="2.5" style="stroke:#181818;stroke-width:0.5;" width="42" x="7" y="115"/><ellipse cx="22" cy="131" fill="#ADD1B2" rx="11" ry="11" style="stroke:#181818;stroke-width:1.0;"/><path d="M24.3438,126.6719 C23.4063,126.2344 22.8125,126.0938 21.9375,126.0938 C19.3125,126.0938 17.3125,128.1719 17.3125,130.8906 L17.3125,132.0156 C17.3125,134.5938 19.4219,136.4844 22.3125,136.4844 C23.5313,136.4844 24.6875,136.1875 25.4375,135.6406 C26.0156,135.2344 26.3438,134.7813 26.3438,134.3906 C26.3438,133.9375 25.9531,133.5469 25.4844,133.5469 C25.2656,133.5469 25.0625,133.625 24.875,133.8125 C24.4219,134.2969 24.4219,134.2969 24.2344,134.3906 C23.8125,134.6563 23.125,134.7813 22.3594,134.7813 C20.3125,134.7813 19.0156,133.6875 19.0156,131.9844 L19.0156,130.8906 C19.0156,129.1094 20.2656,127.7969 22,127.7969 C22.5781,127.7969 23.1875,127.9531 23.6563,128.2031 C24.1406,128.4844 24.3125,128.7031 24.4063,129.1094 C24.4688,129.5156 24.5,129.6406 24.6406,129.7656 C24.7813,129.9063 25.0156,130.0156 25.2344,130.0156 C25.5,130.0156 25.7656,129.875 25.9375,129.6563 C26.0469,129.5 26.0781,129.3125 26.0781,128.8906 L26.0781,127.4688 C26.0781,127.0313 26.0625,126.9063 25.9688,126.75 C25.8125,126.4844 25.5313,126.3438 25.2344,126.3438 C24.9375,126.3438 24.7344,126.4375 24.5156,126.75 L24.3438,126.6719 Z " fill="#000000"/><text fill="#000000" font-family="sans-serif" font-size="14" lengthAdjust="spacing" textLength="10" x="36" y="135.8467">B</text><line style="stroke:#181818;stroke-width:0.5;" x1="8" x2="48" y1="147" y2="147"/><line style="stroke:#181818;stroke-width:0.5;" x1="8" x2="48" y1="155" y2="155"/></g><!--MD5=[378b18254a1b2429f435e93f5e5cc50c]
class C--><g id="elem_C"><rect fill="#F1F1F1" height="48" id="C" rx="2.5" ry="2.5" style="stroke:#181818;stroke-width:0.5;" width="42" x="84" y="115"/><ellipse cx="99" cy="131" fill="#ADD1B2" rx="11" ry="11" style="stroke:#181818;stroke-width:1.0;"/><path d="M101.3438,126.6719 C100.4063,126.2344 99.8125,126.0938 98.9375,126.0938 C96.3125,126.0938 94.3125,128.1719 94.3125,130.8906 L94.3125,132.0156 C94.3125,134.5938 96.4219,136.4844 99.3125,136.4844 C100.5313,136.4844 101.6875,136.1875 102.4375,135.6406 C103.0156,135.2344 103.3438,134.7813 103.3438,134.3906 C103.3438,133.9375 102.9531,133.5469 102.4844,133.5469 C102.2656,133.5469 102.0625,133.625 101.875,133.8125 C101.4219,134.2969 101.4219,134.2969 101.2344,134.3906 C100.8125,134.6563 100.125,134.7813 99.3594,134.7813 C97.3125,134.7813 96.0156,133.6875 96.0156,131.9844 L96.0156,130.8906 C96.0156,129.1094 97.2656,127.7969 99,127.7969 C99.5781,127.7969 100.1875,127.9531 100.6563,128.2031 C101.1406,128.4844 101.3125,128.7031 101.4063,129.1094 C101.4688,129.5156 101.5,129.6406 101.6406,129.7656 C101.7813,129.9063 102.0156,130.0156 102.2344,130.0156 C102.5,130.0156 102.7656,129.875 102.9375,129.6563 C103.0469,129.5 103.0781,129.3125 103.0781,128.8906 L103.0781,127.4688 C103.0781,127.0313 103.0625,126.9063 102.9688,126.75 C102.8125,126.4844 102.5313,126.3438 102.2344,126.3438 C101.9375,126.3438 101.7344,126.4375 101.5156,126.75 L101.3438,126.6719 Z " fill="#000000"/><text fill="#000000" font-family="sans-serif" font-size="14" lengthAdjust="spacing" textLength="10" x="113" y="135.8467">C</text><line style="stroke:#181818;stroke-width:0.5;" x1="85" x2="125" y1="147" y2="147"/><line style="stroke:#181818;stroke-width:0.5;" x1="85" x2="125" y1="155" y2="155"/></g><!--MD5=[69b356fec5e4f53d7535011b6fc9d60b]
class D--><g id="elem_D"><rect fill="#F1F1F1" height="48" id="D" rx="2.5" ry="2.5" style="stroke:#181818;stroke-width:0.5;" width="43" x="44.5" y="223"/><ellipse cx="59.5" cy="239" fill="#ADD1B2" rx="11" ry="11" style="stroke:#181818;stroke-width:1.0;"/><path d="M61.8438,234.6719 C60.9063,234.2344 60.3125,234.0938 59.4375,234.0938 C56.8125,234.0938 54.8125,236.1719 54.8125,238.8906 L54.8125,240.0156 C54.8125,242.5938 56.9219,244.4844 59.8125,244.4844 C61.0313,244.4844 62.1875,244.1875 62.9375,243.6406 C63.5156,243.2344 63.8438,242.7813 63.8438,242.3906 C63.8438,241.9375 63.4531,241.5469 62.9844,241.5469 C62.7656,241.5469 62.5625,241.625 62.375,241.8125 C61.9219,242.2969 61.9219,242.2969 61.7344,242.3906 C61.3125,242.6563 60.625,242.7813 59.8594,242.7813 C57.8125,242.7813 56.5156,241.6875 56.5156,239.9844 L56.5156,238.8906 C56.5156,237.1094 57.7656,235.7969 59.5,235.7969 C60.0781,235.7969 60.6875,235.9531 61.1563,236.2031 C61.6406,236.4844 61.8125,236.7031 61.9063,237.1094 C61.9688,237.5156 62,237.6406 62.1406,237.7656 C62.2813,237.9063 62.5156,238.0156 62.7344,238.0156 C63,238.0156 63.2656,237.875 63.4375,237.6563 C63.5469,237.5 63.5781,237.3125 63.5781,236.8906 L63.5781,235.4688 C63.5781,235.0313 63.5625,234.9063 63.4688,234.75 C63.3125,234.4844 63.0313,234.3438 62.7344,234.3438 C62.4375,234.3438 62.2344,234.4375 62.0156,234.75 L61.8438,234.6719 Z " fill="#000000"/><text fill="#000000" font-family="sans-serif" font-size="14" lengthAdjust="spacing" textLength="11" x="73.5" y="243.8467">D</text><line style="stroke:#181818;stroke-width:0.5;" x1="45.5" x2="86.5" y1="255" y2="255"/><line style="stroke:#181818;stroke-width:0.5;" x1="45.5" x2="86.5" y1="263" y2="263"/></g><!--MD5=[81500ff05264bba268bb228b65a49ed8]
reverse link A to B--><g id="link_A_B"><path codeLine="1" d="M50.923,74.057 C45.9643,87.889 40.6329,102.761 36.3606,114.678 " fill="none" id="A-backto-B" style="stroke:#181818;stroke-width:1.0;"/><polygon fill="none" points="44.4159,71.465,57.7546,55,57.5947,76.189,44.4159,71.465" style="stroke:#181818;stroke-width:1.0;"/></g><!--MD5=[518367c1e7fbaa215fad71504a99bd4f]
reverse link A to C--><g id="link_A_C"><path codeLine="2" d="M81.4738,74.057 C86.563,87.889 92.0347,102.761 96.4194,114.678 " fill="none" id="A-backto-C" style="stroke:#181818;stroke-width:1.0;"/><polygon fill="none" points="74.7989,76.187,74.4624,55,87.9378,71.353,74.7989,76.187" style="stroke:#181818;stroke-width:1.0;"/></g><!--MD5=[aef4253f22c35495e0572246d48c1675]
reverse link C to D--><g id="link_C_D"><path codeLine="3" d="M89.5262,182.0569 C84.437,195.8891 78.9653,210.7609 74.5806,222.6784 " fill="none" id="C-backto-D" style="stroke:#181818;stroke-width:1.0;"/><polygon fill="none" points="83.0622,179.3532,96.5376,163,96.2011,184.1874,83.0622,179.3532" style="stroke:#181818;stroke-width:1.0;"/></g><!--MD5=[7ab6ecae7f500dbabd05e8a84c7483c7]
reverse link B to D--><g id="link_B_D"><path codeLine="4" d="M43.077,182.0569 C48.0357,195.8891 53.3671,210.7609 57.6394,222.6784 " fill="none" id="B-backto-D" style="stroke:#181818;stroke-width:1.0;"/><polygon fill="none" points="36.4053,184.1895,36.2454,163,49.5841,179.465,36.4053,184.1895" style="stroke:#181818;stroke-width:1.0;"/></g><!--MD5=[b8512ef239919e1880b3ad96d8c60cbb]
@startuml
A <|- - B
A <|- - C
C <|- - D
B <|- - D
@enduml

PlantUML version 1.2022.7beta2(Unknown compile time)
(GPL source distribution)
Java Runtime: Java(TM) SE Runtime Environment
JVM: Java HotSpot(TM) 64-Bit Server VM
Default Encoding: UTF-8
Language: en
Country: US
--></g></svg>