<svg xmlns="http://www.w3.org/2000/svg" xmlns:xlink="http://www.w3.org/1999/xlink" contentStyleType="text/css" height="150px" preserveAspectRatio="none" style="width:128px;height:150px;background:#FFFFFF;" version="1.1" viewBox="0 0 128 150" width="128px" zoomAndPan="magnify"><defs/><g><!--MD5=[d4f042c1080df559351a114b3e747b8d]
class Punto--><g id="elem_Punto"><rect fill="#F1F1F1" height="129.4844" id="Punto" rx="2.5" ry="2.5" style="stroke:#181818;stroke-width:0.5;" width="107" x="7" y="7"/><ellipse cx="36.85" cy="23" fill="#ADD1B2" rx="11" ry="11" style="stroke:#181818;stroke-width:1.0;"/><path d="M39.1938,18.6719 C38.2563,18.2344 37.6625,18.0938 36.7875,18.0938 C34.1625,18.0938 32.1625,20.1719 32.1625,22.8906 L32.1625,24.0156 C32.1625,26.5938 34.2719,28.4844 37.1625,28.4844 C38.3813,28.4844 39.5375,28.1875 40.2875,27.6406 C40.8656,27.2344 41.1938,26.7813 41.1938,26.3906 C41.1938,25.9375 40.8031,25.5469 40.3344,25.5469 C40.1156,25.5469 39.9125,25.625 39.725,25.8125 C39.2719,26.2969 39.2719,26.2969 39.0844,26.3906 C38.6625,26.6563 37.975,26.7813 37.2094,26.7813 C35.1625,26.7813 33.8656,25.6875 33.8656,23.9844 L33.8656,22.8906 C33.8656,21.1094 35.1156,19.7969 36.85,19.7969 C37.4281,19.7969 38.0375,19.9531 38.5063,20.2031 C38.9906,20.4844 39.1625,20.7031 39.2563,21.1094 C39.3188,21.5156 39.35,21.6406 39.4906,21.7656 C39.6313,21.9063 39.8656,22.0156 40.0844,22.0156 C40.35,22.0156 40.6156,21.875 40.7875,21.6563 C40.8969,21.5 40.9281,21.3125 40.9281,20.8906 L40.9281,19.4688 C40.9281,19.0313 40.9125,18.9063 40.8188,18.75 C40.6625,18.4844 40.3813,18.3438 40.0844,18.3438 C39.7875,18.3438 39.5844,18.4375 39.3656,18.75 L39.1938,18.6719 Z " fill="#000000"/><text fill="#000000" font-family="sans-serif" font-size="14" lengthAdjust="spacing" textLength="42" x="54.15" y="27.8467">Punto</text><line style="stroke:#181818;stroke-width:0.5;" x1="8" x2="113" y1="39" y2="39"/><text fill="#000000" font-family="sans-serif" font-size="14" lengthAdjust="spacing" textLength="8" x="13" y="55.9951">x</text><text fill="#000000" font-family="sans-serif" font-size="14" lengthAdjust="spacing" textLength="8" x="13" y="72.292">y</text><line style="stroke:#181818;stroke-width:0.5;" x1="8" x2="113" y1="79.5938" y2="79.5938"/><text fill="#000000" font-family="sans-serif" font-size="14" lengthAdjust="spacing" textLength="90" x="13" y="96.5889">__add__(self)</text><text fill="#000000" font-family="sans-serif" font-size="14" lengthAdjust="spacing" textLength="84" x="13" y="112.8857">__str__(self)</text><text fill="#000000" font-family="sans-serif" font-size="14" lengthAdjust="spacing" textLength="95" x="13" y="129.1826">__repr__(self)</text></g><!--MD5=[a2a9e9ce8b16f0d8f67d0fb75ca726b9]
@startuml
Punto : x
Punto : y
Punto : __add__(self)
Punto : __str__(self)
Punto : __repr__(self)
@enduml

PlantUML version 1.2022.7beta2(Unknown compile time)
(GPL source distribution)
Java Runtime: Java(TM) SE Runtime Environment
JVM: Java HotSpot(TM) 64-Bit Server VM
Default Encoding: UTF-8
Language: en
Country: US
--></g></svg>